<svg width="97" height="76" viewBox="0 0 97 76" fill="none" xmlns="http://www.w3.org/2000/svg">
<path d="M89.5475 2.00873C80.6994 2.50855 63.113 4.32782 52.2564 10.9428C51.5072 11.3992 51.0826 12.2108 51.0826 13.0594V71.5382C51.0826 73.3944 53.1218 74.5677 54.8414 73.7062C66.0113 68.1102 82.1655 66.5834 90.1529 66.1656C92.88 66.0225 95 63.8465 95 61.2381V6.94263C95.0016 4.0964 92.5216 1.84159 89.5475 2.00873ZM44.7436 10.9428C33.8886 4.32782 16.3022 2.51015 7.45416 2.00873C4.48004 1.84159 2 4.0964 2 6.94263V61.2397C2 63.8497 4.11999 66.0257 6.84706 66.1672C14.8378 66.585 31 68.1134 42.1699 73.7127C43.8846 74.5725 45.9174 73.4009 45.9174 71.5495V13.0305C45.9174 12.1803 45.4944 11.4008 44.7436 10.9428Z" stroke="#9DF2D6" stroke-width="3"/>
</svg>
