<svg width="68" height="68" viewBox="0 0 68 68" fill="none" xmlns="http://www.w3.org/2000/svg">
<path d="M62.8985 1.639L62.9128 1.63477L62.927 1.63027C64.6855 1.07272 66.4987 2.38677 66.4987 4.25246L66.5 51.0003C66.5 52.6902 65.4727 54.4034 63.4336 55.7627C61.405 57.115 58.5161 58.0002 55.25 58.0002C51.9839 58.0002 49.095 57.115 47.0664 55.7627C45.0273 54.4034 44 52.6902 44 51.0003C44 49.3104 45.0273 47.5972 47.0664 46.2379C49.095 44.8856 51.9839 44.0005 55.25 44.0005C56.6106 44.0005 57.9103 44.1861 59.1543 44.4807L61 44.9178V43.0211V18.5003V16.4977L59.0782 17.0609L25.0782 27.0243L24 27.3402V28.4637V59.5002C24 61.19 22.9727 62.9033 20.9336 64.2625C18.905 65.6149 16.0161 66.5 12.75 66.5C9.48392 66.5 6.59498 65.6149 4.56637 64.2625C2.52732 62.9033 1.5 61.19 1.5 59.5002C1.5 57.8103 2.52732 56.0971 4.56637 54.7378C6.59498 53.3854 9.48392 52.5003 12.75 52.5003C14.1106 52.5003 15.4103 52.6859 16.6543 52.9806L18.5 53.4176V51.5209V16.8017C18.5 15.6059 19.2741 14.551 20.4147 14.1852L62.8985 1.639Z" stroke="#9DF2D6" stroke-width="3"/>
</svg>
