<svg width="126" height="78" viewBox="0 0 126 78" fill="none" xmlns="http://www.w3.org/2000/svg">
<path d="M71.6176 70.0321C85.8953 70.0321 97.4696 58.3223 97.4696 43.8775C97.4696 29.4327 85.8953 17.7229 71.6176 17.7229C57.34 17.7229 45.7656 29.4327 45.7656 43.8775C45.7656 58.3223 57.34 70.0321 71.6176 70.0321Z" fill="#9EF2D6"/>
<path d="M60.6416 63.7455C67.2607 62.7942 73.3679 60.535 79.2652 57.4175C83.806 55.0187 88.2955 52.32 93.5069 51.8392C94.0649 51.7875 94.07 50.9034 93.5069 50.9551C88.4645 51.4152 84.108 53.8296 79.685 56.1819C73.542 59.4596 67.2863 61.8688 60.3856 62.9028C59.8276 62.9855 60.0631 63.8385 60.616 63.761L60.6416 63.7455Z" fill="#0F0F0F"/>
<path d="M34.9583 68.7965C40.011 63.3422 42.929 56.2233 44.3572 48.9699C45.6984 42.1456 45.893 34.8767 44.4135 28.0576C44.0296 26.4135 42.4938 23.2599 40.7123 25.6484C39.4223 27.3958 38.7773 29.9808 38.1988 32.0487C37.6292 34.0485 37.247 36.0979 37.0572 38.1699C36.7265 42.6218 37.1226 47.0983 38.2295 51.4204C39.1254 55.2048 40.3693 59.4131 43.0723 62.3237C45.1968 64.6192 47.8332 64.857 50.3006 62.939C53.4848 60.4574 55.3277 56.306 55.599 52.32C55.6348 51.7513 54.7594 51.7513 54.7185 52.32C54.4987 55.9463 52.9036 59.3477 50.2648 61.8171C48.0072 63.8334 45.6268 63.8851 43.574 61.5689C41.1833 58.8909 40.0468 55.1376 39.2022 51.7099C38.2074 47.9198 37.7404 44.0082 37.8149 40.088C37.9695 36.2298 38.7763 32.4268 40.2004 28.8434C40.4461 28.2127 40.9734 26.3101 41.6389 25.9017C42.5604 25.333 43.0569 26.5376 43.2822 27.1632C43.6443 28.3604 43.8946 29.5894 44.0296 30.8338C44.8927 36.9283 44.6865 43.1286 43.4204 49.1508C41.9921 56.1095 39.1868 62.9286 34.3338 68.1709C33.9499 68.5845 34.5693 69.2049 34.9532 68.7965H34.9583Z" fill="#0F0F0F"/>
<path d="M66.1659 39.1884C64.6301 38.1544 62.4032 37.5599 60.5962 38.0614C58.4614 38.6507 56.7977 40.6722 55.8046 42.5643C54.8053 44.5386 54.2842 46.7242 54.2842 48.9414C54.2842 51.1587 54.8053 53.3443 55.8046 55.3185C57.0537 57.8259 59.6542 60.2713 62.4135 58.1671C64.8297 56.3267 65.3929 52.4285 65.7666 49.6368C66.3039 45.3102 66.3965 40.939 66.043 36.5931H65.1625C65.4472 39.4314 65.9226 42.2469 66.5856 45.0201C67.2409 47.9204 67.9217 51.6841 69.9438 53.995C70.4557 54.5792 71.326 55.2462 72.1604 54.9153C72.9181 54.6154 72.9693 53.5969 73.0307 52.8887C73.3481 48.9906 72.657 44.9115 72.2526 41.0392C71.6229 34.9542 71.326 28.8641 71.0035 22.7532H70.1384C70.5004 28.5398 71.184 34.3013 72.186 40.0104C72.8106 43.3657 73.5119 46.995 75.1961 50.0039C75.9487 51.348 77.2438 52.9145 78.9434 52.4337C81.7692 51.6427 82.5012 47.4241 82.8749 44.9994C83.5865 40.3465 83.4688 35.5643 83.2947 30.8648H82.4244C82.9364 35.678 83.6735 41.0651 85.8799 45.413C86.3918 46.447 87.4566 48.1944 88.8491 47.8325C89.8166 47.5792 90.1903 46.3177 90.4309 45.475C91.6083 41.3391 91.5827 36.8826 92.2021 32.664C92.4581 30.9372 92.6731 28.8899 93.5638 27.3596C94.4546 25.8293 95.3863 26.9822 95.9187 28.1817C97.0603 30.7666 97.4544 33.7652 97.91 36.5466C98.3657 39.328 98.6421 42.1456 98.8878 44.9632L99.753 44.8443C99.0619 40.3309 97.9305 35.5384 99.4663 31.0975C99.6813 30.4668 100.347 29.6085 100.418 28.983C100.418 29.0709 100.577 28.7555 100.582 28.771C100.587 28.7865 100.07 28.771 100.07 28.7245C100.07 28.7659 100.244 28.9882 100.255 29.0295C100.48 29.8309 101.166 30.7097 101.56 31.4335C102.755 33.7844 104.18 36.0083 105.814 38.0717C106.782 39.2246 108.404 40.9203 110.037 40.0311C111.251 39.3693 112.193 37.9631 112.976 36.8516C114.053 35.4079 114.928 33.8213 115.576 32.1366C116.513 29.5 116.452 26.1447 115.909 23.4357C115.541 21.5797 114.307 18.6587 111.885 19.4704C109.669 20.2096 109.7 23.72 109.781 25.5812C109.945 29.0709 110.877 33.3826 113.657 35.7246C117.471 38.9402 122.585 36.6603 125.856 33.8634C126.286 33.4963 125.661 32.8708 125.231 33.2378C121.699 36.2622 115.914 38.2733 112.863 33.4395C111.287 30.9424 110.672 27.8508 110.642 24.9246C110.642 23.72 110.642 22.3397 111.235 21.2333C111.901 19.9615 113.283 20.0029 114.107 21.1196C115.669 23.2289 115.489 26.8065 115.244 29.2622C114.942 32.3641 113.314 35.161 111.348 37.534C110.769 38.232 109.904 39.4986 108.875 39.3642C108.01 39.2504 107.227 38.3302 106.684 37.7201C105.164 35.8825 103.846 33.8839 102.753 31.7592C102.307 30.9631 101.883 30.1566 101.447 29.3501C101.268 29.0243 101.033 28.3161 100.695 28.0938C99.282 27.1735 98.1353 32.3383 98.0073 32.9483C97.2548 36.8774 98.294 41.1788 98.8878 45.0666C98.9646 45.5526 99.7939 45.444 99.753 44.9477C99.3178 39.9846 98.8264 34.8819 97.48 30.079C96.9988 28.3678 95.0945 23.446 92.9495 26.6358C92.0486 27.9697 91.7772 29.7843 91.511 31.3405C91.1322 33.5532 90.9121 35.7969 90.6664 38.0252C90.5538 39.0591 89.9906 47.848 88.0351 46.814C87.042 46.297 86.4993 44.7461 86.0949 43.7586C85.5744 42.3938 85.1468 40.9946 84.8151 39.571C84.1115 36.705 83.5984 33.7948 83.2794 30.8597C83.223 30.3065 82.3784 30.2806 82.404 30.8597C82.5891 34.5564 82.5618 38.2608 82.3221 41.9543C82.1122 44.653 81.8869 49.7867 79.1789 51.3532C75.3804 53.5556 73.471 42.1352 73.1229 40.3361C72.0739 34.5242 71.3662 28.6547 71.0035 22.7584C70.9625 22.1949 70.0974 22.1846 70.1281 22.7584C70.3892 27.7319 70.5479 32.726 71.0342 37.684C71.4079 41.5252 71.884 45.3613 72.1093 49.218C72.2705 50.6092 72.2705 52.0145 72.1093 53.4057C71.9301 54.3828 71.3311 54.1811 70.6963 53.5039C68.7869 51.4721 68.1623 47.8635 67.5532 45.232C66.8458 42.3926 66.3411 39.5055 66.043 36.5931C65.9969 36.0296 65.1215 36.0192 65.1625 36.5931C65.5771 42.342 65.787 48.8768 63.8264 54.3724C62.8588 57.0763 60.2429 59.6768 57.7294 56.7196C55.4872 54.0519 54.7449 49.9987 55.3285 46.6279C55.706 44.1822 56.872 41.9306 58.6457 40.2224C60.6934 38.3819 63.4578 38.4491 65.7 39.9535C66.171 40.2689 66.6112 39.4986 66.1454 39.1884H66.1659Z" fill="#0F0F0F"/>
<path d="M81.303 22.1329C81.0963 22.4864 81.0017 22.8953 81.0319 23.3047C81.0621 23.7141 81.2156 24.1044 81.4719 24.4231C81.7423 24.7314 82.1011 24.9468 82.4984 25.0395C82.8957 25.1321 83.3117 25.0974 83.6885 24.9401C84.2004 24.723 83.9752 23.8648 83.453 24.0819C83.2474 24.1901 83.0123 24.2273 82.7838 24.1876C82.5552 24.148 82.3459 24.0337 82.1878 23.8623C82.0298 23.691 81.9318 23.472 81.9088 23.239C81.8858 23.006 81.9391 22.7718 82.0606 22.5723C82.1114 22.4714 82.1221 22.3547 82.0907 22.246C82.0592 22.1374 81.9878 22.045 81.8912 21.9876C81.7946 21.9302 81.6799 21.9122 81.5706 21.9373C81.4613 21.9624 81.3656 22.0286 81.303 22.1225V22.1329Z" fill="#0F0F0F"/>
<path d="M63.119 33.5273C68.5709 31.6765 72.7124 27.5561 78.0159 25.4623C78.5278 25.2606 78.3077 24.3973 77.7804 24.6092C72.4769 26.6772 68.3303 30.8131 62.8886 32.6691C62.3767 32.8501 62.5815 33.7031 63.119 33.5273Z" fill="#0F0F0F"/>
<path d="M7.43784 20.9386C9.5989 29.9864 11.1485 39.1721 12.0758 48.4322C12.5161 52.8025 12.8454 57.1797 13.0638 61.5638C13.1696 63.7558 13.2533 65.9496 13.3147 68.1451C13.371 70.3113 13.7805 72.891 13.1713 74.9952C12.685 76.6961 11.354 77.7714 9.79267 76.448C8.36441 75.233 7.58118 72.9893 6.82865 71.3091C5.2064 67.5872 3.94959 63.7136 3.07627 59.744C1.60706 53.2454 1.14121 46.3797 0.941564 39.7209C0.695842 31.5317 1.49956 23.2599 4.22298 15.4533C6.2297 9.69921 9.51623 4.17257 15.4084 1.86679C27.0034 -2.67756 36.5303 9.00644 37.375 19.7754C37.8869 26.8478 36.2794 34.5768 32.5834 40.6463C30.7899 43.5109 28.4345 45.9742 25.6622 47.8842C22.519 50.0762 19.0072 50.557 15.2446 50.2623C14.6815 50.221 14.6815 51.105 15.2446 51.1516C18.5465 51.4101 21.833 51.1516 24.7817 49.4817C27.5306 47.8832 29.9442 45.7583 31.8872 43.2261C35.9416 37.9476 37.8869 30.8855 38.2503 24.2939C38.6138 17.7022 37.0217 11.1468 32.7011 6.01306C29.2713 1.94951 24.1725 -0.52171 18.823 0.0935092C13.3915 0.744918 8.84562 4.40005 6.0966 9.0478C1.73504 16.4201 0.311901 25.7983 0.0559408 34.2563C-0.180693 41.796 0.333815 49.3407 1.5917 56.7764C2.32402 61.0032 3.46597 65.1469 5.00109 69.148C5.73575 71.0841 6.59065 72.9714 7.5607 74.7987C8.21084 76.0033 9.09646 77.4199 10.453 77.8593C13.284 78.7641 14.2669 75.0883 14.2976 73.01C14.359 67.9693 14.0621 62.8821 13.7396 57.8466C13.1373 47.9047 11.8751 38.0149 9.96161 28.2437C9.45651 25.7139 8.90193 23.1996 8.29786 20.7008C8.16476 20.1476 7.31498 20.3802 7.44808 20.9386H7.43784Z" fill="#0F0F0F"/>
</svg>
