<svg width="86" height="86" viewBox="0 0 86 86" fill="none" xmlns="http://www.w3.org/2000/svg">
<path d="M83.9984 7.12796C83.9984 3.65103 80.6191 1.20068 77.3359 2.24168L26.0875 17.3762C23.9574 18.0488 22.5 20.0187 22.5 22.2609V64.1282C20.8904 63.747 19.1816 63.5004 17.375 63.5004C8.88352 63.5004 2 68.0888 2 73.7502C2 79.4116 8.88352 84 17.375 84C25.8665 84 32.75 79.4116 32.75 73.7502V36.3239L73.75 24.3092V53.8783C72.1404 53.4972 70.4316 53.2505 68.625 53.2505C60.1335 53.2505 53.25 57.8389 53.25 63.5004C53.25 69.1618 60.1335 73.7502 68.625 73.7502C77.1165 73.7502 84 69.1618 84 63.5004L83.9984 7.12796V7.12796Z" stroke="#9DF2D6" stroke-width="3"/>
</svg>
