<svg xmlns="http://www.w3.org/2000/svg" width="246.15" height="150.89" viewBox="0 0 246.15 150.89">
  <defs>
    <style>
      .cls-1 {
        fill: #9ef2d6;
      }

      .cls-2 {
        fill: #0f0f0f;
      }
    </style>
  </defs>
  <title>platine_logo-simple 12</title>
  <g id="Calque_2" data-name="Calque 2">
    <g id="Calque_7" data-name="Calque 7">
      <g>
        <ellipse class="cls-1" cx="139.89" cy="84.88" rx="50.5" ry="50.59"/>
        <path class="cls-2" d="M118.45,123.31c12.93-1.84,24.86-6.21,36.38-12.24,8.87-4.64,17.64-9.86,27.82-10.79,1.09-.1,1.1-1.81,0-1.71-9.85.89-18.36,5.56-27,10.11-12,6.34-24.22,11-37.7,13-1.09.16-.63,1.81.45,1.66Z"/>
        <g>
          <path class="cls-2" d="M68.28,133.08c9.87-10.55,15.57-24.32,18.36-38.35,2.62-13.2,3-27.26.11-40.45C86,51.1,83,45,79.52,49.62,77,53,75.74,58,74.61,62a64.23,64.23,0,0,0-2.23,11.84,78.81,78.81,0,0,0,2.29,25.63c1.75,7.32,4.18,15.46,9.46,21.09,4.15,4.44,9.3,4.9,14.12,1.19,6.22-4.8,9.82-12.83,10.35-20.54.07-1.1-1.64-1.1-1.72,0a27.32,27.32,0,0,1-8.7,18.37c-4.41,3.9-9.06,4-13.07-.48-4.67-5.18-6.89-12.44-8.54-19.07a81.63,81.63,0,0,1-2.71-22.48A65.51,65.51,0,0,1,78.52,55.8c.48-1.22,1.51-4.9,2.81-5.69,1.8-1.1,2.77,1.23,3.21,2.44A38.75,38.75,0,0,1,86,59.65a101.44,101.44,0,0,1-1.19,35.43c-2.79,13.46-8.27,26.65-17.75,36.79-.75.8.46,2,1.21,1.21Z"/>
          <path class="cls-2" d="M129.24,75.81c-3-2-7.35-3.15-10.88-2.18-4.17,1.14-7.42,5.05-9.36,8.71a27.1,27.1,0,0,0,0,24.67c2.44,4.85,7.52,9.58,12.91,5.51,4.72-3.56,5.82-11.1,6.55-16.5A122.29,122.29,0,0,0,129,70.79h-1.72a121.72,121.72,0,0,0,2.78,16.3c1.28,5.61,2.61,12.89,6.56,17.36,1,1.13,2.7,2.42,4.33,1.78,1.48-.58,1.58-2.55,1.7-3.92.62-7.54-.73-15.43-1.52-22.92-1.23-11.77-1.81-23.55-2.44-35.37H137a299.46,299.46,0,0,0,4,33.38c1.22,6.49,2.59,13.51,5.88,19.33,1.47,2.6,4,5.63,7.32,4.7,5.52-1.53,6.95-9.69,7.68-14.38,1.39-9,1.16-18.25.82-27.34H161c1,9.31,2.44,19.73,6.75,28.14,1,2,3.08,5.38,5.8,4.68,1.89-.49,2.62-2.93,3.09-4.56,2.3-8,2.25-16.62,3.46-24.78.5-3.34.92-7.3,2.66-10.26s3.56-.73,4.6,1.59c2.23,5,3,10.8,3.89,16.18s1.43,10.83,1.91,16.28l1.69-.23c-1.35-8.73-3.56-18-.56-26.59.42-1.22,1.72-2.88,1.86-4.09,0,.17.31-.44.32-.41s-1,0-1-.09c0,.08.34.51.36.59.44,1.55,1.78,3.25,2.55,4.65a76.39,76.39,0,0,0,8.31,12.84c1.89,2.23,5.06,5.51,8.25,3.79,2.37-1.28,4.21-4,5.74-6.15a38.11,38.11,0,0,0,5.08-9.12c1.83-5.1,1.71-11.59.65-16.83-.72-3.59-3.13-9.24-7.86-7.67-4.33,1.43-4.27,8.22-4.11,11.82.32,6.75,2.14,15.09,7.57,19.62,7.45,6.22,17.44,1.81,23.83-3.6.84-.71-.38-1.92-1.22-1.21-6.9,5.85-18.2,9.74-24.16.39-3.08-4.83-4.28-10.81-4.34-16.47,0-2.33,0-5,1.16-7.14,1.3-2.46,4-2.38,5.61-.22,3.05,4.08,2.7,11,2.22,15.75-.59,6-3.77,11.41-7.61,16-1.13,1.35-2.82,3.8-4.83,3.54-1.69-.22-3.22-2-4.28-3.18a64.08,64.08,0,0,1-7.68-11.53c-.87-1.54-1.7-3.1-2.55-4.66-.35-.63-.81-2-1.47-2.43-2.76-1.78-5,8.21-5.25,9.39-1.47,7.6.56,15.92,1.72,23.44.15.94,1.77.73,1.69-.23-.85-9.6-1.81-19.47-4.44-28.76-.94-3.31-4.66-12.83-8.85-6.66-1.76,2.58-2.29,6.09-2.81,9.1-.74,4.28-1.17,8.62-1.65,12.93-.22,2-1.32,19-5.14,17-1.94-1-3-4-3.79-5.91a62.13,62.13,0,0,1-2.5-8.1,128.1,128.1,0,0,1-3-16.85c-.11-1.07-1.76-1.12-1.71,0a185.11,185.11,0,0,1-.16,21.46c-.41,5.22-.85,15.15-6.14,18.18-7.42,4.26-11.15-17.83-11.83-21.31a289.84,289.84,0,0,1-4.14-34c-.08-1.09-1.77-1.11-1.71,0,.51,9.62.82,19.28,1.77,28.87.73,7.43,1.66,14.85,2.1,22.31a34.83,34.83,0,0,1,0,8.1c-.35,1.89-1.52,1.5-2.76.19-3.73-3.93-4.95-10.91-6.14-16A118.39,118.39,0,0,1,129,70.79c-.09-1.09-1.8-1.11-1.72,0,.81,11.12,1.22,23.76-2.61,34.39-1.89,5.23-7,10.26-11.91,4.54-4.38-5.16-5.83-13-4.69-19.52a21.75,21.75,0,0,1,6.48-12.39c4-3.56,9.4-3.43,13.78-.52.92.61,1.78-.88.87-1.48Z"/>
          <path class="cls-2" d="M158.81,42.82a3.89,3.89,0,0,0,.33,4.43,3.83,3.83,0,0,0,4.33,1c1-.42.56-2.08-.46-1.66a2.07,2.07,0,0,1-2.72-2.92.86.86,0,0,0-1.48-.87Z"/>
          <path class="cls-2" d="M123.29,64.86c10.65-3.58,18.74-11.55,29.1-15.6,1-.39.57-2.06-.46-1.65-10.36,4-18.46,12-29.09,15.59-1,.35-.6,2,.45,1.66Z"/>
          <path class="cls-2" d="M14.52,40.51a397.27,397.27,0,0,1,9.06,53.18q1.29,12.68,1.93,25.4.31,6.36.49,12.73c.11,4.19.91,9.18-.28,13.25-.95,3.29-3.55,5.37-6.6,2.81-2.79-2.35-4.32-6.69-5.79-9.94A120.27,120.27,0,0,1,6,115.57C3.13,103,2.22,89.72,1.83,76.84,1.35,61,2.92,45,8.24,29.9,12.16,18.77,18.58,8.08,30.09,3.62,52.74-5.17,71.35,17.43,73,38.26c1,13.68-2.14,28.63-9.36,40.37a48,48,0,0,1-13.52,14c-6.14,4.24-13,5.17-20.35,4.6-1.1-.08-1.1,1.63,0,1.72,6.45.5,12.87,0,18.63-3.23a47.62,47.62,0,0,0,13.88-12.1C70.2,73.41,74,59.75,74.71,47s-2.4-25.43-10.84-35.36C57.17,3.78,47.21-1,36.76.19,26.15,1.45,17.27,8.52,11.9,17.51,3.38,31.77.6,49.91.1,66.27a217.71,217.71,0,0,0,3,43.56,126.65,126.65,0,0,0,6.66,23.93,95.33,95.33,0,0,0,5,10.93c1.27,2.33,3,5.07,5.65,5.92,5.53,1.75,7.45-5.36,7.51-9.38.12-9.75-.46-19.59-1.09-29.33a430.72,430.72,0,0,0-7.38-57.26q-1.48-7.34-3.25-14.59c-.26-1.07-1.92-.62-1.66.46Z"/>
        </g>
      </g>
    </g>
  </g>
</svg>
