<svg xmlns="http://www.w3.org/2000/svg" width="447.64" height="319.17" viewBox="0 0 447.64 319.17">
  <defs>
    <style>
      .cls-1 {
        fill: #9ef2d6;
      }

      .cls-2 {
        fill: #0f0f0f;
      }
    </style>
  </defs>
  <title>platine_logo-principal</title>
  <g id="Calque_2" data-name="Calque 2">
    <g id="Calque_7" data-name="Calque 7">
      <g>
        <ellipse class="cls-1" cx="265.97" cy="196.19" rx="112.3" ry="112.51"/>
        <path class="cls-2" d="M212.08,222.78c22.59-3.21,43.44-10.83,63.57-21.37,15.5-8.11,30.82-17.24,48.61-18.86,1.91-.17,1.93-3.18,0-3-17.2,1.57-32.09,9.73-47.09,17.67-20.92,11.08-42.32,19.32-65.89,22.67-1.9.27-1.09,3.16.8,2.89Z"/>
        <g>
          <path class="cls-2" d="M118.59,294.18l4.41-1.61,2.91,20.84,5.51-2,.28,4.27-9.59,3.49Z"/>
          <path class="cls-2" d="M134,288.56l3.51,25-4.38,1.59-3.51-25Z"/>
          <path class="cls-2" d="M142.4,304.23l.19,1.18c.3,1.69.8,2.47,1.89,2.07.94-.34,1.15-1.24.89-2.92-.32-2-1.06-3.08-3.87-4.62-3.34-1.83-4.84-3-5.43-6.8s.69-6,3.91-7.14c5.09-1.86,6.73,1.54,7.24,4.7l.09.53-4.22,1.53-.13-.92c-.27-1.63-.68-2.68-1.75-2.29-.72.26-1,.87-.81,2.14.3,1.73.84,2.38,3.1,3.67,4.43,2.49,5.8,4.07,6.36,7.92.58,4.07-.73,6.45-4.5,7.82-4.35,1.59-6.63-.44-7.24-4.7l-.08-.59Z"/>
          <path class="cls-2" d="M159.73,293.79l-4.8,1.74,1,7,5.8-2.11.09,4.29-9.71,3.54-3.51-25,9.46-3.44.56,4.11-5.06,1.84.78,5.64,4.8-1.75Z"/>
          <path class="cls-2" d="M163,301.19l2.76-19.82-5.28,1.92-.57-4.14L170,275.46l.45,3.39L168,298.12l5.67-2.06.12,4.31-10.4,3.78Z"/>
          <path class="cls-2" d="M175.17,303.17a27.6,27.6,0,0,0,.38-9.81l4.06-1.48A19.43,19.43,0,0,1,178.54,302Z"/>
          <path class="cls-2" d="M194.8,281l-4.8,1.75,1,7,5.79-2.11.09,4.29-9.71,3.53-3.5-25,9.45-3.44.56,4.12L188.65,273l.78,5.64,4.81-1.75Zm-.57-19.81-4.3,5.52-4.13,1.5,2.69-4.93Z"/>
          <path class="cls-2" d="M208.21,279.49l.14,1.1c.41,3.6.88,7.27-4.21,9.12-4.11,1.5-6.47-.21-7.14-5.07l-1.58-11.33c-.66-4.77.05-7.51,4-9,5.46-2,6.84,1.86,7.17,4.83l.14,1-4.4,1.6-.25-1.8c-.22-1.59-.65-2.26-1.61-1.91s-1,1.11-.72,2.89l1.81,12.88c.24,1.63.57,2.56,1.61,2.18s1-1.18.78-3.07l-.24-1.81Z"/>
          <path class="cls-2" d="M220,264.72l1.62,11.54c.65,4.59-.19,7.17-4.49,8.74s-6.68-.4-7.34-5L208,267.8c-.65-4.55,1-6.93,4.37-8.15C216.49,258.15,219.28,259.86,220,264.72Zm-7.51,1.41,1.88,13.15c.18,1.33.66,2.42,1.91,2,1.07-.39,1.15-1.44,1-2.91l-1.88-13.17c-.21-1.44-.75-2.23-1.95-1.8C212.51,263.68,212.21,264.52,212.45,266.13Z"/>
          <path class="cls-2" d="M225.32,255.33,228,274.51c.2,1.38.76,2,1.74,1.64,1.15-.42,1.16-1.35,1-2.63L228,254.34l4.47-1.63,2.61,18.68c.58,4.2.22,6.88-4.45,8.59-4.19,1.52-6.53-.09-7.16-4.48l-2.6-18.57Z"/>
          <path class="cls-2" d="M237.82,255.13l-3.31,1.21-.57-4.15,11-4,.57,4.14-3.35,1.21,2.94,20.86-4.38,1.6Z"/>
          <path class="cls-2" d="M257.51,258.2l-4.8,1.74,1,7,5.8-2.11.09,4.29-9.71,3.54-3.51-25,9.46-3.44.56,4.11-5.06,1.84.78,5.64,4.8-1.74Z"/>
          <path class="cls-2" d="M260.76,265.6l2.76-19.82-5.28,1.92-.57-4.14,10.12-3.69.46,3.39-2.48,19.27,5.68-2.06.11,4.31-10.4,3.78Z"/>
          <path class="cls-2" d="M273,267.58a27.82,27.82,0,0,0,.37-9.81l4.07-1.48a19.53,19.53,0,0,1-1.08,10.07Z"/>
          <path class="cls-2" d="M281.46,234.9l9.5-3.46.57,4.14-5,1.84.84,5.8,4.76-1.73.54,4.15-4.76,1.73,1.55,10.91L285,259.9Z"/>
          <path class="cls-2" d="M297.89,248.78l.32,6.3-4.63,1.68-.41-26.13,6.77-2.46L306.65,252l-4.42,1.61-1.55-5.86Zm1.82-5c-.72-2.85-2-7.89-2.63-10.14l-.18.06c.2,1.92.6,7.48.78,10.81Z"/>
          <path class="cls-2" d="M308.61,225l3.51,25-4.38,1.6-3.51-25Z"/>
          <path class="cls-2" d="M313.88,227.45l-3.31,1.2-.57-4.14,11-4,.57,4.14-3.34,1.22,2.94,20.86-4.39,1.59Z"/>
          <path class="cls-2" d="M333.57,230.51l-4.8,1.75,1,7,5.8-2.11.08,4.29L326,245l-3.51-25,9.45-3.44.56,4.12-5.05,1.84.78,5.64,4.8-1.75Z"/>
          <path class="cls-2" d="M339.58,232.46l.19,1.18c.3,1.7.81,2.47,1.9,2.07.94-.34,1.14-1.24.88-2.92-.31-2-1.06-3.08-3.87-4.62-3.34-1.83-4.83-3-5.43-6.8s.69-6,3.91-7.14c5.09-1.85,6.73,1.54,7.25,4.7l.08.53L340.28,221l-.13-.92c-.28-1.62-.69-2.68-1.76-2.29-.72.26-1,.87-.81,2.14.3,1.74.84,2.38,3.11,3.67,4.42,2.49,5.79,4.07,6.35,7.92.58,4.07-.72,6.45-4.49,7.82-4.36,1.59-6.64-.44-7.24-4.7l-.08-.58Z"/>
          <path class="cls-2" d="M353.29,213.1,350,214.31l-.57-4.14,11-4,.57,4.14-3.34,1.22,2.93,20.85-4.38,1.6Z"/>
          <path class="cls-2" d="M373.15,209l1.62,11.54c.66,4.59-.18,7.17-4.49,8.74s-6.67-.4-7.33-5L361.2,212c-.65-4.55,1-6.93,4.37-8.15C369.69,202.39,372.48,204.1,373.15,209Zm-7.5,1.41,1.87,13.15c.19,1.33.67,2.42,1.91,2,1.07-.39,1.16-1.44,1-2.91l-1.88-13.17c-.21-1.44-.75-2.23-1.94-1.8C365.71,207.93,365.4,208.76,365.65,210.37Z"/>
          <path class="cls-2" d="M378.52,199.57l2.69,19.18c.2,1.38.76,2,1.74,1.64,1.14-.42,1.15-1.35,1-2.63l-2.69-19.18,4.47-1.63,2.61,18.68c.58,4.2.22,6.88-4.46,8.59-4.18,1.52-6.53-.09-7.15-4.48l-2.6-18.56Z"/>
          <path class="cls-2" d="M394.18,208.8l1.51,10.8-4.39,1.59-3.5-25,5.34-1.94c3.89-1.41,6.35,0,7,4.3l.2,1.43c.45,3-.38,4.43-1.58,5.32,1.26.32,2.32,1.15,2.82,5a55.65,55.65,0,0,0,1.13,6.71l-4.32,1.57A49,49,0,0,1,397,211c-.34-2.47-.78-3-2.2-2.45Zm-.52-3.72.6-.22c1.58-.58,1.94-1.24,1.59-3.46l-.25-1.53c-.27-1.66-.72-2.34-2.2-1.8l-.69.25Z"/>
          <path class="cls-2" d="M404.58,216.36l-3.51-25,5-1.83c2.54,7,5.21,14.7,5.53,15.74l.11,0c-.72-3.39-1.88-9.08-2.38-12.56l-.58-4.11,4.14-1.51,3.5,25-5,1.82c-2.18-6.12-5.36-15.09-5.59-15.87l-.12.05c.56,2.88,1.76,8.64,2.33,12.56l.61,4.27Z"/>
          <path class="cls-2" d="M426.18,196.8l-4.8,1.75,1,7,5.8-2.11.08,4.29-9.71,3.53-3.5-25,9.45-3.44.56,4.12-5,1.84.77,5.64,4.81-1.75Z"/>
          <path class="cls-2" d="M432.36,194.91l1.51,10.79-4.39,1.6-3.5-25,5.34-2c3.88-1.41,6.34,0,7,4.31l.2,1.43c.44,3-.38,4.43-1.58,5.31,1.26.32,2.32,1.15,2.82,5a58.3,58.3,0,0,0,1.12,6.72l-4.31,1.57a49.44,49.44,0,0,1-1.36-7.6c-.34-2.47-.78-3-2.2-2.45Zm-.52-3.73.59-.22c1.59-.57,1.95-1.24,1.6-3.45l-.25-1.53c-.27-1.67-.72-2.35-2.2-1.81l-.7.25Z"/>
          <path class="cls-2" d="M443.36,202.25l-.84-5.94,4.28-1.56.84,5.94Z"/>
        </g>
        <g>
          <path class="cls-2" d="M119.33,232.56c17.23-18.43,27.2-42.49,32.07-67,4.58-23.07,5.31-47.64.2-70.7-1.24-5.55-6.6-16.3-12.64-8.14-4.33,5.86-6.61,14.7-8.59,21.61a113.79,113.79,0,0,0-3.89,20.7c-1.4,15,.5,30.15,4,44.79,3.07,12.8,7.31,27,16.53,36.86,7.26,7.76,16.26,8.56,24.68,2.07,10.87-8.38,17.17-22.42,18.09-35.89.13-1.93-2.87-1.92-3,0C186,188.76,180.61,201,171.57,209c-7.7,6.81-15.83,6.94-22.84-.84-8.16-9.05-12-21.74-14.92-33.32-3.19-12.84-5.19-26-4.74-39.29a114.15,114.15,0,0,1,8.15-38c.84-2.14,2.63-8.57,4.9-10,3.15-1.92,4.85,2.15,5.61,4.25,1.4,3.9,2,8.33,2.57,12.41a177,177,0,0,1-2.08,61.92c-4.86,23.52-14.45,46.57-31,64.29-1.32,1.41.8,3.53,2.12,2.12Z"/>
          <path class="cls-2" d="M225.84,132.47c-5.2-3.44-12.83-5.5-19-3.8-7.29,2-13,8.82-16.36,15.22-7.1,13.4-6.65,29.69.09,43.12,4.26,8.47,13.13,16.72,22.56,9.61,8.24-6.21,10.17-19.38,11.45-28.82a214.46,214.46,0,0,0,.92-44.09h-3a211.55,211.55,0,0,0,4.86,28.48c2.23,9.8,4.56,22.52,11.45,30.33,1.75,2,4.72,4.24,7.57,3.12,2.6-1,2.77-4.46,3-6.85,1.08-13.18-1.28-27-2.65-40-2.15-20.57-3.16-41.16-4.26-61.82h-3c1.44,19.52,3.35,39.08,7,58.33C248.54,146.6,251,158.86,256.7,169c2.56,4.55,6.9,9.83,12.78,8.21,9.65-2.67,12.16-16.93,13.42-25.13,2.43-15.76,2-31.89,1.44-47.77h-3c1.77,16.26,4.27,34.46,11.81,49.18,1.75,3.4,5.37,9.39,10.13,8.16,3.31-.85,4.58-5.11,5.4-8,4-13.92,3.92-29,6.05-43.3.88-5.84,1.6-12.75,4.65-17.93s6.22-1.27,8,2.78c3.89,8.76,5.34,18.88,6.79,28.28s2.51,18.93,3.35,28.44l2.95-.39c-2.36-15.25-6.21-31.45-1-46.48.74-2.12,3-5,3.26-7.15,0,.31.54-.75.56-.7s-1.76,0-1.71-.16c-.05.15.6.89.64,1,.76,2.7,3.1,5.67,4.45,8.12,4.28,7.77,8.75,15.66,14.52,22.44,3.31,3.89,8.84,9.63,14.42,6.62,4.15-2.25,7.36-7,10-10.75a66.84,66.84,0,0,0,8.86-15.93c3.2-8.91,3-20.26,1.15-29.43C394.46,73,390.23,63.09,382,65.82c-7.57,2.51-7.48,14.38-7.19,20.66.55,11.8,3.73,26.38,13.22,34.3,13,10.86,30.49,3.16,41.64-6.3,1.48-1.25-.65-3.36-2.12-2.12-12,10.23-31.8,17-42.22.68-5.38-8.43-7.48-18.89-7.58-28.78,0-4.07.07-8.78,2-12.47,2.27-4.3,7-4.16,9.81-.39,5.32,7.13,4.71,19.16,3.88,27.52-1,10.57-6.59,20-13.31,28-2,2.36-4.92,6.65-8.43,6.19-2.95-.39-5.63-3.5-7.49-5.57-5.38-6-9.49-13.16-13.42-20.14-1.51-2.7-3-5.42-4.46-8.14-.61-1.11-1.41-3.52-2.55-4.25-4.84-3.11-8.78,14.35-9.18,16.41-2.57,13.29,1,27.83,3,40.95.26,1.66,3.1,1.29,2.95-.4-1.47-16.77-3.15-34-7.75-50.26-1.64-5.77-8.15-22.42-15.47-11.63-3.07,4.52-4,10.64-4.91,15.91-1.29,7.48-2.05,15-2.88,22.59-.39,3.54-2.31,33.17-9,29.67-3.4-1.79-5.32-7-6.64-10.33a111.18,111.18,0,0,1-4.36-14.15,221,221,0,0,1-5.22-29.44c-.2-1.88-3.07-2-3,0,.47,12.49.73,25-.27,37.5-.72,9.12-1.49,26.47-10.73,31.77-13,7.43-19.48-31.16-20.67-37.24-3.83-19.6-5.76-39.56-7.23-59.46-.15-1.9-3.11-1.94-3,0,.89,16.82,1.43,33.7,3.09,50.46,1.28,13,2.91,26,3.68,39,.26,4.58.79,9.61-.06,14.16-.61,3.3-2.65,2.62-4.82.33-6.51-6.86-8.65-19.07-10.72-27.93a205.2,205.2,0,0,1-5.11-29.21c-.17-1.91-3.14-1.94-3,0,1.41,19.43,2.12,41.52-4.58,60.09-3.29,9.14-12.3,17.93-20.8,7.93-7.65-9-10.19-22.74-8.19-34.1,1.42-8.06,5.14-16.14,11.32-21.65,7-6.23,16.42-6,24.08-.92,1.61,1.07,3.12-1.53,1.51-2.59Z"/>
          <path class="cls-2" d="M277.52,74.83a6.8,6.8,0,0,0,.58,7.75,6.71,6.71,0,0,0,7.57,1.77c1.75-.74,1-3.64-.8-2.89-3.32,1.4-6.66-1.82-4.76-5.12a1.5,1.5,0,0,0-2.59-1.51Z"/>
          <path class="cls-2" d="M215.45,113.34c18.61-6.25,32.74-20.18,50.85-27.25,1.78-.7,1-3.6-.8-2.9-18.11,7.08-32.26,21-50.84,27.26-1.82.61-1,3.5.79,2.89Z"/>
          <path class="cls-2" d="M25.38,70.79A692.86,692.86,0,0,1,41.2,163.73q2.28,22.14,3.37,44.38.57,11.12.86,22.25c.2,7.32,1.59,16-.48,23.16-1.67,5.74-6.21,9.37-11.54,4.9-4.87-4.1-7.55-11.68-10.11-17.37A208.94,208.94,0,0,1,10.47,202c-5-22-6.58-45.17-7.27-67.67-.84-27.76,1.91-55.73,11.19-82C21.26,32.8,32.47,14.13,52.59,6.32,92.16-9,124.69,30.46,127.48,66.86c1.83,23.9-3.74,50-16.36,70.54a83.7,83.7,0,0,1-23.63,24.42c-10.72,7.4-22.77,9-35.56,8-1.92-.15-1.91,2.85,0,3,11.28.87,22.49-.09,32.55-5.64a83.38,83.38,0,0,0,24.27-21.15c13.92-17.79,20.47-41.65,21.81-63.91s-4.2-44.43-18.94-61.78C99.91,6.6,82.5-1.83,64.25.34,45.69,2.54,30.19,14.88,20.79,30.61,5.9,55.52,1.05,87.23.18,115.8a379.13,379.13,0,0,0,5.21,76.12A220.46,220.46,0,0,0,17,233.74a165.32,165.32,0,0,0,8.74,19.1c2.23,4.08,5.16,8.86,9.88,10.36,9.65,3.06,13-9.37,13.11-16.39.22-17.05-.8-34.25-1.9-51.26A750.41,750.41,0,0,0,34,95.48Q31.37,82.67,28.27,70c-.46-1.88-3.35-1.08-2.89.8Z"/>
        </g>
      </g>
    </g>
  </g>
</svg>
