<svg xmlns="http://www.w3.org/2000/svg" width="431.18" height="297.65" viewBox="0 0 431.18 297.65">
  <title>platine</title>
  <g id="Calque_2" data-name="Calque 2">
    <g id="logo">
      <g>
        <path d="M213.11,254.09c22.59-3.22,43.43-10.84,63.57-21.38,15.5-8.11,30.82-17.24,48.61-18.86,1.91-.17,1.93-3.17,0-3-17.21,1.57-32.09,9.73-47.09,17.67-20.93,11.08-42.33,19.32-65.89,22.67-1.9.27-1.09,3.16.8,2.9Z"/>
        <g>
          <path d="M30.21,108.67a670.61,670.61,0,0,1,16.48,86.38q2.69,21.94,3.92,44c.76,13.54,1.69,27.43,1,41-.3,5.63-1.9,14.44-9.17,14.58-6.94.14-11.49-8.16-14.06-13.47a247.07,247.07,0,0,1-14.12-36.64A269.83,269.83,0,0,1,13.78,92c6.73-22.9,16.11-46.2,31.72-64.59C60.15,10.13,82.21-3,105.26,5.23,129,13.71,142,38.86,143.35,62.85c1.7,30.49-10.53,61.8-25,88.1-12.3,22.38-34.07,55-64.14,48.19-1.88-.43-2.68,2.46-.8,2.89,25,5.66,45.83-15.19,58.37-34.3,16.18-24.66,29.08-53.59,33.39-82.92,3.8-25.77-1-53.47-21.14-71.57C106.6-2.45,82.52-4.26,62.69,8.15c-21,13.15-34,36-43.16,58.34A266.34,266.34,0,0,0,.63,148.87,273.55,273.55,0,0,0,8.19,234a262.56,262.56,0,0,0,13.38,39.52c3.65,8.48,9.26,24.35,20.84,24.18,10.66-.15,12.2-13,12.24-21.11.06-16.33-.59-32.68-1.78-49a670.39,670.39,0,0,0-13.93-95.41Q36.25,120,33.11,107.87a1.51,1.51,0,0,0-2.9.8Z"/>
          <path d="M120.36,263.86c17.23-18.43,27.19-42.49,32.06-67,4.59-23.07,5.32-47.64.2-70.69C151.39,120.6,146,109.85,140,118c-4.34,5.86-6.61,14.7-8.59,21.61a113.79,113.79,0,0,0-3.89,20.7c-1.4,15,.5,30.15,4,44.79,3.06,12.8,7.31,27,16.53,36.86,7.26,7.76,16.25,8.56,24.68,2.07,10.87-8.38,17.17-22.42,18.09-35.89.13-1.93-2.87-1.92-3,0-.82,11.91-6.17,24.11-15.21,32.1-7.71,6.81-15.83,6.94-22.85-.84-8.16-9-12-21.74-14.91-33.32-3.2-12.84-5.19-26-4.74-39.29a114.14,114.14,0,0,1,8.14-38c.85-2.14,2.63-8.57,4.91-9.95,3.15-1.92,4.85,2.16,5.6,4.25,1.41,3.9,1.95,8.33,2.57,12.41a176.79,176.79,0,0,1-2.07,61.92c-4.87,23.52-14.45,46.57-31,64.29-1.31,1.41.8,3.53,2.13,2.12Z"/>
          <path d="M226.87,163.77c-5.2-3.44-12.84-5.5-19-3.8-7.29,2-13,8.82-16.36,15.22-7.1,13.4-6.66,29.69.09,43.12,4.26,8.47,13.13,16.72,22.56,9.61,8.24-6.21,10.17-19.38,11.45-28.82a215.16,215.16,0,0,0,.92-44.09h-3a210,210,0,0,0,4.86,28.48c2.23,9.8,4.56,22.52,11.45,30.33,1.75,2,4.71,4.24,7.57,3.12,2.59-1,2.77-4.46,3-6.85,1.09-13.18-1.27-27-2.64-40.05-2.16-20.57-3.16-41.16-4.27-61.82h-3c1.45,19.52,3.36,39.08,7,58.33,2.13,11.35,4.54,23.61,10.28,33.79,2.57,4.55,6.9,9.83,12.79,8.21,9.65-2.67,12.15-16.93,13.42-25.13,2.43-15.76,2-31.89,1.44-47.77h-3c1.76,16.26,4.26,34.46,11.81,49.18,1.75,3.4,5.37,9.39,10.13,8.16,3.3-.85,4.58-5.11,5.4-8,4-13.92,3.92-29,6.05-43.3.87-5.84,1.6-12.75,4.65-17.93s6.22-1.27,8,2.78c3.9,8.76,5.35,18.88,6.8,28.28s2.51,18.93,3.35,28.44l2.94-.39c-2.35-15.25-6.21-31.45-1-46.48.74-2.12,3-5,3.26-7.14,0,.3.54-.76.55-.71s-1.75,0-1.7-.16c-.05.15.6.89.64,1,.76,2.7,3.1,5.67,4.45,8.12,4.28,7.78,8.75,15.66,14.52,22.44,3.31,3.89,8.84,9.63,14.42,6.62,4.15-2.25,7.36-7,10-10.75A66.53,66.53,0,0,0,395.59,140c3.2-8.91,3-20.26,1.15-29.42-1.26-6.27-5.49-16.14-13.74-13.41-7.56,2.51-7.47,14.38-7.18,20.66.55,11.8,3.73,26.38,13.22,34.3,13,10.86,30.49,3.16,41.64-6.3,1.47-1.25-.66-3.36-2.12-2.12-12.06,10.23-31.8,17-42.22.68-5.38-8.43-7.48-18.89-7.58-28.78-.05-4.07.07-8.78,2-12.47,2.27-4.3,7-4.16,9.81-.39,5.33,7.13,4.71,19.16,3.89,27.52-1.05,10.57-6.59,19.95-13.31,28-2,2.36-4.93,6.65-8.43,6.19-3-.39-5.63-3.5-7.49-5.56-5.38-6-9.49-13.17-13.42-20.15-1.52-2.7-3-5.42-4.46-8.14-.61-1.11-1.42-3.52-2.56-4.25-4.83-3.11-8.77,14.35-9.17,16.41-2.57,13.29,1,27.83,3,40.95.26,1.66,3.1,1.29,2.95-.4-1.48-16.77-3.15-34-7.76-50.26-1.63-5.77-8.14-22.42-15.46-11.63-3.07,4.52-4,10.64-4.92,15.91-1.28,7.48-2,15.05-2.87,22.59-.39,3.54-2.31,33.17-9,29.67-3.4-1.79-5.32-7-6.64-10.33a111.18,111.18,0,0,1-4.36-14.15,221,221,0,0,1-5.22-29.44c-.2-1.88-3.07-2-3,0,.46,12.49.73,25-.27,37.5-.73,9.12-1.5,26.47-10.73,31.77-13,7.43-19.48-31.16-20.67-37.24-3.83-19.6-5.76-39.56-7.24-59.46-.14-1.9-3.1-1.94-3,0,.9,16.82,1.44,33.7,3.1,50.46,1.28,13,2.91,25.95,3.67,39,.27,4.58.8,9.61,0,14.16-.62,3.3-2.65,2.62-4.82.33-6.52-6.86-8.65-19.07-10.73-27.93a206.6,206.6,0,0,1-5.1-29.21c-.17-1.91-3.15-1.94-3,0,1.41,19.43,2.12,41.52-4.58,60.09-3.29,9.14-12.31,17.93-20.8,7.93-7.65-9-10.2-22.74-8.19-34.1,1.42-8.06,5.14-16.14,11.32-21.65,7-6.22,16.41-6,24.08-.92,1.61,1.07,3.11-1.53,1.51-2.59Z"/>
          <path d="M278.54,106.13a6.81,6.81,0,0,0,.59,7.75,6.69,6.69,0,0,0,7.56,1.77c1.75-.74,1-3.64-.8-2.89-3.32,1.4-6.65-1.82-4.76-5.12a1.5,1.5,0,0,0-2.59-1.51Z"/>
          <path d="M216.48,144.64c18.61-6.25,32.74-20.18,50.85-27.25,1.78-.7,1-3.6-.8-2.89-18.12,7.07-32.26,21-50.85,27.25-1.82.61-1,3.51.8,2.89Z"/>
        </g>
      </g>
    </g>
  </g>
</svg>
