<svg xmlns="http://www.w3.org/2000/svg" width="543" height="470.46" viewBox="0 0 543 470.46">
  <defs>
    <style>
      .cls-1 {
        fill: #9ef2d6;
      }
    </style>
  </defs>
  <title>platine-logo_v0</title>
  <g id="Calque_2" data-name="Calque 2">
    <g id="logo">
      <g>
        <circle class="cls-1" cx="271.5" cy="235.23" r="112.3"/>
        <g>
          <g>
            <path d="M29.56,109.12a670.59,670.59,0,0,1,17.25,84.52q3.11,22.62,4.63,45.4c.91,13.51,2,27.36,1.43,40.9-.24,5.62-1.71,14.43-9,14.67-6.93.23-11.58-8-14.21-13.27a246.46,246.46,0,0,1-14.55-36.4A269,269,0,0,1,12.93,92.7c6.48-22.94,15.59-46.31,31-64.83C58.38,10.46,80.28-2.86,103.41,5.06c23.85,8.16,37.15,33.1,38.76,57.05,2.05,30.42-9.82,61.81-24,88.21-12.06,22.5-33.46,55.28-63.58,48.84-1.88-.41-2.69,2.48-.8,2.89,25.06,5.36,45.64-15.63,58-34.88,15.91-24.81,28.43-53.79,32.46-83.13,3.54-25.75-1.65-53.38-21.94-71.19C104.7-2.62,80.6-4.17,60.91,8.44,40.07,21.8,27.28,44.73,18.4,67.15a265.37,265.37,0,0,0-18,82.43A272.2,272.2,0,0,0,9,234.4a261.22,261.22,0,0,0,13.82,39.29c3.75,8.44,9.54,24.19,21.1,23.92,10.65-.26,12.08-13.14,12-21.2-.12-16.3-1-32.61-2.33-48.85a668.18,668.18,0,0,0-15-95.06q-2.82-12.14-6.11-24.17a1.5,1.5,0,0,0-2.89.79Z"/>
            <path d="M121.45,263c17-18.58,26.73-42.7,31.31-67.23,4.25-22.74,4.73-46.8-.34-69.46-1.19-5.32-6.26-17.62-12.74-9.42-4.12,5.22-6.11,13.54-8,19.8a113.78,113.78,0,0,0-4.21,22c-1.38,15.29.67,30.64,4.41,45.47,3.18,12.64,7.5,26.49,16.55,36.28,7.14,7.72,16.1,9,24.6,2.63,11.11-8.37,17.42-22.78,18.2-36.41.11-1.93-2.89-1.92-3,0-.69,12-5.94,24.25-15,32.33-3.13,2.8-7.19,5.6-11.58,5.5-4.67-.1-8.58-3.32-11.53-6.63-8.41-9.41-12.37-22.52-15.38-34.5-3.2-12.7-5.17-25.77-4.67-38.9a115.27,115.27,0,0,1,8.29-38c.86-2.18,3.09-10.63,7.14-8.54,1.4.72,2.32,3.26,2.83,4.69,1.46,4.13,2.08,8.82,2.75,13.15a176.61,176.61,0,0,1-1.55,60.62c-4.6,23.54-13.92,46.66-30.27,64.52-1.31,1.42.81,3.55,2.12,2.12Z"/>
            <path d="M212.72,141.32c20.57-10.48,41.46-20.82,62.68-29.91,1.77-.76.24-3.34-1.51-2.59-21.23,9.09-42.11,19.43-62.68,29.91-1.72.87-.21,3.46,1.51,2.59Z"/>
            <path d="M226.85,161.91c-5.24-3.38-12.9-5.34-19-3.59-7.26,2.06-12.87,8.94-16.19,15.36-6.94,13.45-6.33,29.72.56,43,4.36,8.41,13.31,16.56,22.67,9.37,8.17-6.29,9.95-19.45,11.13-28.9a213.65,213.65,0,0,0,.42-44h-3a210.24,210.24,0,0,0,5.18,28.37c2.34,9.75,4.82,22.44,11.79,30.15,1.77,2,4.75,4.18,7.59,3,2.59-1,2.74-4.47,2.91-6.86.95-13.16-1.59-26.9-3.1-39.94-2.39-20.5-3.63-41-5-61.64h-3c1.67,19.46,3.8,39,7.63,58.13,2.27,11.3,4.81,23.52,10.67,33.6,2.62,4.52,7,9.75,12.87,8.07,9.62-2.74,12-17,13.14-25.21,2.27-15.76,1.68-31.85.91-47.7h-3c1.95,16.26,4.66,34.53,12.46,49.13,1.78,3.35,5.43,9.12,10.11,7.88,3.49-.93,4.71-5.65,5.49-8.64,3.58-13.82,3.46-28.56,5.39-42.65.79-5.76,1.48-12.23,4.19-17.47,3-5.86,6.33-2.18,8.39,2.36,3.87,8.54,5.42,18.32,7,27.5,1.61,9.55,2.79,19.17,3.75,28.81l2.95-.4c-2.53-15.19-6.58-31.32-1.52-46.37.72-2.12,3-5.05,3.18-7.17,0,.3.53-.77.55-.71,0-.12-1.76,0-1.71-.17,0,.15.61.88.65,1,.81,2.69,3.17,5.62,4.55,8.06,4.37,7.7,8.92,15.53,14.77,22.23,3.35,3.84,8.95,9.51,14.49,6.46,4.11-2.27,7.29-7.08,9.92-10.83a67.07,67.07,0,0,0,8.69-16c3.09-8.94,2.77-20.26.82-29.38-1.33-6.25-5.66-16-13.87-13.25-7.54,2.58-7.33,14.43-7,20.7.68,11.77,4,26.28,13.6,34.08,13.13,10.7,30.51,2.84,41.56-6.73,1.46-1.27-.67-3.38-2.12-2.12-11.93,10.33-31.6,17.36-42.21,1.18-5.48-8.35-7.71-18.76-7.92-28.63-.09-4.06,0-8.76,1.87-12.47,2.1-4.11,6.59-4.36,9.53-.88,5.78,6.84,5.2,19.44,4.48,27.76-.92,10.58-6.36,20-13,28.12-1.94,2.38-4.86,6.69-8.35,6.29-3-.34-5.68-3.42-7.56-5.46-5.45-5.91-9.65-13-13.65-19.95-1.55-2.67-3-5.38-4.55-8.07-.63-1.11-1.46-3.49-2.61-4.22-4.86-3.09-8.61,14.39-9,16.46-2.45,13.26,1.29,27.78,3.46,40.84.27,1.65,3.11,1.28,2.94-.4-1.67-16.77-3.53-34-8.36-50.21-1.33-4.46-3.12-11.58-7.59-14.1-3.36-1.89-6.45.28-8.23,3.19-2.77,4.54-3.64,10.35-4.47,15.51-1.2,7.48-1.88,15-2.62,22.58-.34,3.46-1.87,33.19-8.67,29.71-3.07-1.58-4.92-6.06-6.21-9A99.11,99.11,0,0,1,290.7,163,219.45,219.45,0,0,1,285,133.19c-.23-1.86-3.1-2-3,0,.6,12.46,1,25,.15,37.43-.62,9.13-1.19,26.42-10.35,31.83-12.88,7.61-19.84-30.83-21.1-36.9-4.06-19.52-6.22-39.41-7.92-59.25-.16-1.9-3.12-1.94-3,0,1.09,16.77,1.82,33.61,3.67,50.32,1.43,12.94,3.2,25.87,4.12,38.86.32,4.55.87,9.5.12,14-.56,3.36-2.55,2.84-4.82.51-6.6-6.75-8.87-18.93-11-27.74a205.69,205.69,0,0,1-5.44-29.1c-.19-1.9-3.17-1.94-3,0,1.63,19.35,2.61,41.44-3.89,60-3.2,9.15-12.09,18-20.7,8.17-7.76-8.9-10.46-22.57-8.6-33.93,1.33-8.06,5-16.18,11.07-21.74,6.91-6.3,16.32-6.2,24.06-1.21,1.63,1.05,3.13-1.55,1.52-2.59Z"/>
            <path d="M283.92,97.84a6.58,6.58,0,0,0,8.59,9.29c1.76-.77.24-3.35-1.52-2.59-3.26,1.41-6.13-2.24-4.48-5.19.94-1.68-1.65-3.2-2.59-1.51Z"/>
          </g>
          <g>
            <path d="M513.44,361.33a669.87,669.87,0,0,1-17.25-84.52q-3.1-22.6-4.63-45.39c-.91-13.51-2-27.36-1.43-40.9.24-5.62,1.71-14.43,9-14.67,6.93-.23,11.58,8,14.21,13.27a246.46,246.46,0,0,1,14.55,36.4,269,269,0,0,1,2.19,152.24c-6.48,22.94-15.59,46.31-31,64.82-14.47,17.42-36.37,30.74-59.5,22.82-23.85-8.17-37.16-33.1-38.77-57-2-30.42,9.83-61.82,24-88.21,12.06-22.5,33.46-55.28,63.58-48.84,1.88.4,2.69-2.49.8-2.89-25.06-5.36-45.64,15.63-58,34.88-15.9,24.8-28.43,53.79-32.45,83.13-3.54,25.75,1.65,53.38,21.94,71.18,17.63,15.47,41.73,17,61.42,4.41,20.84-13.35,33.63-36.28,42.51-58.71a265.25,265.25,0,0,0,18-82.42A272.2,272.2,0,0,0,534,236.06a261.22,261.22,0,0,0-13.82-39.29c-3.75-8.44-9.54-24.19-21.1-23.92-10.65.25-12.08,13.13-12,21.2.12,16.3,1,32.61,2.33,48.85a668.18,668.18,0,0,0,15,95.06q2.82,12.14,6.11,24.17a1.5,1.5,0,0,0,2.89-.8Z"/>
            <path d="M421.55,207.45c-17,18.57-26.73,42.7-31.31,67.23-4.25,22.74-4.73,46.8.34,69.46,1.19,5.31,6.26,17.61,12.74,9.42,4.12-5.22,6.11-13.54,8-19.8a114.54,114.54,0,0,0,4.21-21.95c1.38-15.29-.67-30.64-4.41-45.47-3.18-12.64-7.5-26.49-16.55-36.28-7.14-7.72-16.1-9-24.6-2.63-11.11,8.37-17.42,22.78-18.2,36.41-.11,1.93,2.89,1.92,3,0,.68-12,5.94-24.26,15-32.33,3.13-2.8,7.18-5.6,11.58-5.51,4.66.1,8.58,3.33,11.53,6.64,8.41,9.41,12.37,22.52,15.38,34.5,3.2,12.7,5.16,25.77,4.67,38.9a115.32,115.32,0,0,1-8.29,38c-.86,2.17-3.09,10.63-7.14,8.54-1.4-.72-2.32-3.27-2.83-4.69-1.46-4.13-2.08-8.83-2.76-13.15a176.92,176.92,0,0,1,1.56-60.63c4.6-23.53,13.92-46.66,30.27-64.51,1.31-1.42-.81-3.55-2.12-2.12Z"/>
            <path d="M330.28,329.14c-20.57,10.48-41.46,20.82-62.68,29.91-1.77.76-.24,3.34,1.51,2.59,21.22-9.09,42.11-19.43,62.68-29.91,1.72-.88.2-3.47-1.51-2.59Z"/>
            <path d="M316.15,308.55c5.24,3.38,12.9,5.34,19.05,3.59,7.26-2.06,12.87-8.94,16.19-15.37,6.94-13.45,6.33-29.71-.56-43-4.36-8.41-13.31-16.56-22.67-9.37-8.18,6.29-10,19.45-11.13,28.9a213,213,0,0,0-.42,44h3a210.24,210.24,0,0,0-5.18-28.37c-2.34-9.76-4.82-22.44-11.79-30.15-1.77-2-4.75-4.19-7.59-3-2.59,1-2.74,4.48-2.91,6.87-.95,13.16,1.59,26.9,3.1,39.93,2.39,20.51,3.63,41.05,5,61.65h3c-1.67-19.46-3.8-39-7.63-58.13-2.27-11.3-4.81-23.52-10.67-33.61-2.62-4.51-7-9.74-12.87-8.06-9.63,2.74-12,17-13.14,25.21-2.27,15.76-1.68,31.85-.91,47.7h3c-1.95-16.26-4.66-34.53-12.46-49.14-1.78-3.34-5.43-9.12-10.11-7.87-3.49.93-4.71,5.65-5.49,8.64-3.58,13.81-3.46,28.56-5.39,42.65-.79,5.75-1.48,12.23-4.19,17.46-3,5.87-6.33,2.18-8.39-2.35-3.87-8.54-5.42-18.32-7-27.51-1.61-9.55-2.79-19.16-3.75-28.8l-2.95.4c2.53,15.19,6.58,31.31,1.51,46.37-.71,2.12-2.95,5.05-3.17,7.17,0-.3-.53.76-.55.71,0,.11,1.76,0,1.71.17,0-.15-.61-.89-.65-1-.81-2.69-3.17-5.62-4.55-8.06-4.37-7.71-8.93-15.53-14.77-22.23-3.35-3.85-9-9.52-14.49-6.46-4.11,2.27-7.29,7.08-9.92,10.83a66.72,66.72,0,0,0-8.69,16c-3.09,8.93-2.77,20.25-.82,29.38,1.33,6.25,5.66,16,13.87,13.24,7.54-2.57,7.33-14.42,7-20.69-.68-11.77-4-26.28-13.6-34.08-13.13-10.7-30.51-2.84-41.56,6.73-1.47,1.26.66,3.38,2.12,2.12,11.93-10.33,31.6-17.37,42.21-1.19,5.48,8.35,7.7,18.77,7.92,28.64.09,4.06,0,8.76-1.87,12.47-2.1,4.11-6.59,4.36-9.54.87-5.77-6.84-5.19-19.44-4.47-27.76.92-10.57,6.36-20,13-28.11,1.94-2.38,4.86-6.7,8.35-6.29,3,.34,5.68,3.42,7.56,5.46,5.45,5.91,9.64,13,13.65,19.95,1.55,2.67,3,5.37,4.55,8.07.63,1.1,1.46,3.49,2.6,4.22,4.87,3.09,8.62-14.4,9-16.46,2.45-13.27-1.29-27.78-3.46-40.84-.27-1.65-3.11-1.28-2.94.4,1.67,16.77,3.53,34,8.36,50.2,1.32,4.47,3.12,11.59,7.59,14.11,3.36,1.89,6.45-.28,8.23-3.19,2.77-4.54,3.63-10.35,4.46-15.51,1.21-7.48,1.89-15,2.63-22.58.34-3.46,1.87-33.19,8.67-29.71,3.07,1.58,4.91,6.06,6.21,9a99.62,99.62,0,0,1,4.9,14.75A220.7,220.7,0,0,1,258,337.27c.23,1.86,3.1,2,3,0-.6-12.46-1-25-.15-37.43.62-9.13,1.19-26.42,10.35-31.83,12.88-7.61,19.84,30.83,21.1,36.9,4.06,19.52,6.22,39.41,7.92,59.25.16,1.9,3.12,1.94,3,0-1.09-16.78-1.82-33.61-3.67-50.32-1.43-12.95-3.2-25.87-4.12-38.86-.32-4.55-.87-9.5-.12-14,.56-3.35,2.55-2.83,4.82-.5,6.6,6.75,8.87,18.93,11.05,27.74a205.69,205.69,0,0,1,5.44,29.1c.19,1.9,3.17,1.94,3,0-1.63-19.36-2.61-41.44,3.89-60,3.2-9.15,12.09-18.05,20.7-8.17,7.76,8.9,10.46,22.57,8.6,33.93-1.33,8.06-5,16.18-11.07,21.74-6.91,6.3-16.33,6.2-24.06,1.21-1.63-1-3.13,1.54-1.52,2.59Z"/>
            <path d="M259.08,372.62a6.57,6.57,0,0,0-8.59-9.29c-1.76.77-.24,3.35,1.52,2.59,3.26-1.41,6.13,2.24,4.48,5.18-.94,1.69,1.65,3.2,2.59,1.52Z"/>
          </g>
          <path d="M213.74,256.83c22.56-4.56,43.06-13.48,62.72-25.28,15-9,29.68-18.77,47.32-21.42,1.9-.28,1.09-3.17-.8-2.89-17.11,2.57-31.56,11.75-46.08,20.54-20.08,12.15-40.84,21.48-64,26.16-1.89.38-1.09,3.27.8,2.89Z"/>
        </g>
      </g>
    </g>
  </g>
</svg>
