<svg xmlns="http://www.w3.org/2000/svg" width="274.3" height="252.5" viewBox="0 0 274.3 252.5">
  <defs>
    <style>
      .cls-1 {
        fill: #9ef2d6;
      }

      .cls-2 {
        fill: #0f0f0f;
      }
    </style>
  </defs>
  <title>platine_logo-tournant</title>
  <g id="Calque_2" data-name="Calque 2">
    <g id="Calque_7" data-name="Calque 7">
      <g>
        <g>
          <ellipse class="cls-1" cx="136.49" cy="126.26" rx="62.05" ry="62.17"/>
          <path class="cls-2" d="M105.61,138.19a108.15,108.15,0,0,0,35.12-11.81c8.57-4.48,17-9.52,26.86-10.42,1.06-.1,1.07-1.75,0-1.66-9.5.87-17.73,5.38-26,9.76-11.56,6.13-23.38,10.68-36.4,12.53-1.06.15-.61,1.75.44,1.6Z"/>
        </g>
        <g>
          <g>
            <path class="cls-2" d="M65.93,128.5c9.53-10.18,15-23.48,17.72-37,2.54-12.75,2.94-26.32.11-39.06-.68-3.07-3.64-9-7-4.5C74.39,51.15,73.13,56,72,59.85a62.71,62.71,0,0,0-2.15,11.44A75.94,75.94,0,0,0,72.1,96c1.69,7.07,4,14.92,9.13,20.36,4,4.29,9,4.73,13.64,1.15,6-4.63,9.48-12.39,10-19.83.07-1.07-1.58-1.06-1.66,0a26.44,26.44,0,0,1-8.4,17.74c-4.26,3.76-8.75,3.83-12.62-.47-4.51-5-6.65-12-8.24-18.41a78.79,78.79,0,0,1-2.62-21.71,63.12,63.12,0,0,1,4.5-21c.46-1.18,1.45-4.73,2.71-5.5,1.74-1.05,2.68,1.2,3.1,2.36a37.88,37.88,0,0,1,1.42,6.85A97.85,97.85,0,0,1,81.9,91.8c-2.69,13-8,25.74-17.14,35.53-.73.78.44,2,1.17,1.17Z"/>
            <path class="cls-2" d="M124.79,73.2c-2.87-1.91-7.09-3-10.5-2.11-4,1.11-7.16,4.88-9,8.42a26.16,26.16,0,0,0,0,23.82c2.35,4.68,7.25,9.24,12.47,5.31,4.55-3.43,5.62-10.71,6.32-15.92a118.17,118.17,0,0,0,.51-24.37h-1.66a115,115,0,0,0,2.69,15.74c1.23,5.42,2.52,12.45,6.33,16.76,1,1.1,2.6,2.35,4.18,1.73s1.53-2.47,1.64-3.79c.59-7.28-.71-14.9-1.47-22.13-1.19-11.37-1.74-22.74-2.35-34.16H132.3a290.35,290.35,0,0,0,3.85,32.23c1.18,6.27,2.51,13,5.69,18.67,1.42,2.52,3.81,5.43,7.06,4.54,5.33-1.47,6.72-9.36,7.41-13.89,1.35-8.71,1.13-17.61.8-26.39h-1.66c1,9,2.36,19,6.53,27.17,1,1.88,3,5.19,5.6,4.51,1.82-.47,2.53-2.82,3-4.4,2.22-7.69,2.17-16,3.35-23.93.48-3.22.88-7,2.56-9.9s3.44-.71,4.44,1.53c2.15,4.84,3,10.43,3.75,15.63s1.39,10.46,1.85,15.71l1.63-.22c-1.3-8.42-3.43-17.37-.54-25.67.41-1.18,1.66-2.78,1.8-4,0,.16.3-.42.31-.39s-1,0-.94-.09c0,.08.33.49.35.57.42,1.49,1.71,3.13,2.46,4.49a74.45,74.45,0,0,0,8,12.4c1.83,2.15,4.89,5.32,8,3.65,2.29-1.23,4.07-3.87,5.55-5.93A36.7,36.7,0,0,0,218,60c1.77-4.92,1.66-11.19.64-16.25-.69-3.47-3-8.92-7.59-7.41-4.18,1.39-4.13,7.94-4,11.42.3,6.51,2.06,14.57,7.31,18.95,7.19,6,16.84,1.74,23-3.48.82-.69-.36-1.86-1.17-1.17-6.66,5.64-17.57,9.4-23.33.37-3-4.66-4.13-10.44-4.19-15.9,0-2.25,0-4.85,1.12-6.89,1.25-2.38,3.86-2.3,5.42-.22,2.94,3.94,2.6,10.59,2.14,15.21-.57,5.84-3.64,11-7.35,15.48-1.09,1.3-2.72,3.67-4.66,3.42-1.63-.21-3.11-1.93-4.14-3.07a61.65,61.65,0,0,1-7.41-11.14c-.84-1.49-1.65-3-2.46-4.49-.34-.62-.79-2-1.42-2.35-2.67-1.72-4.85,7.93-5.07,9.07-1.42,7.34.54,15.37,1.66,22.62.14.92,1.71.71,1.63-.22-.81-9.27-1.74-18.79-4.28-27.77-.91-3.19-4.51-12.39-8.55-6.43-1.7,2.5-2.21,5.88-2.71,8.79-.72,4.14-1.14,8.32-1.6,12.49-.21,2-1.27,18.32-5,16.39-1.88-1-2.94-3.88-3.66-5.71A58.91,58.91,0,0,1,160,73.92a122.75,122.75,0,0,1-2.89-16.26c-.11-1-1.7-1.09-1.66,0a176.82,176.82,0,0,1-.14,20.72c-.41,5-.83,14.62-5.93,17.55C142.21,100,138.61,78.71,138,75.36a278.83,278.83,0,0,1-4-32.86c-.08-1-1.72-1.07-1.66,0,.5,9.3.79,18.62,1.71,27.89.71,7.17,1.61,14.33,2,21.53a33,33,0,0,1,0,7.82c-.34,1.83-1.46,1.45-2.66.19-3.6-3.79-4.78-10.54-5.93-15.43a113.45,113.45,0,0,1-2.82-16.15c-.09-1-1.74-1.07-1.66,0,.78,10.74,1.17,23-2.53,33.21-1.82,5-6.8,9.91-11.49,4.38-4.23-5-5.63-12.56-4.53-18.84a21,21,0,0,1,6.26-12c3.86-3.43,9.07-3.31,13.3-.5.89.59,1.72-.85.84-1.43Z"/>
            <path class="cls-2" d="M153.34,41.35a3.78,3.78,0,0,0,.32,4.28,3.7,3.7,0,0,0,4.18,1c1-.41.55-2-.44-1.6a2,2,0,0,1-2.63-2.83.83.83,0,0,0-1.43-.83Z"/>
            <path class="cls-2" d="M119.05,62.62c10.28-3.45,18.09-11.15,28.09-15,1-.39.56-2-.44-1.6-10,3.91-17.82,11.61-28.09,15.06-1,.33-.58,1.94.44,1.59Z"/>
            <path class="cls-2" d="M14,39.11a383.42,383.42,0,0,1,8.74,51.36Q24,102.7,24.63,115q.32,6.15.47,12.29c.11,4.05.88,8.87-.26,12.8-.93,3.17-3.43,5.18-6.38,2.71-2.69-2.26-4.17-6.46-5.58-9.6a114.73,114.73,0,0,1-7.09-21.6c-2.77-12.14-3.64-25-4-37.39C1.31,58.86,2.82,43.41,8,28.87c3.79-10.74,10-21.06,21.11-25.38C50.92-5,68.9,16.83,70.44,36.94c1,13.21-2.07,27.65-9,39A46.13,46.13,0,0,1,48.34,89.41c-5.92,4.09-12.58,5-19.65,4.44-1.06-.08-1.05,1.58,0,1.66,6.24.48,12.43-.05,18-3.11A46.22,46.22,0,0,0,60.09,80.71c7.69-9.83,11.31-23,12-35.31S69.82,20.85,61.67,11.26C55.2,3.65,45.59-1,35.5.19c-10.25,1.21-18.82,8-24,16.72C3.26,30.68.58,48.2.1,64A209.51,209.51,0,0,0,3,106.05a121.83,121.83,0,0,0,6.43,23.1,91.31,91.31,0,0,0,4.82,10.56c1.23,2.25,2.85,4.89,5.46,5.72,5.34,1.69,7.2-5.18,7.25-9.06.12-9.42-.45-18.92-1.05-28.32a416.19,416.19,0,0,0-7.13-55.29q-1.43-7.08-3.14-14.09c-.25-1-1.85-.59-1.6.44Z"/>
          </g>
          <g>
            <path class="cls-2" d="M206.34,125c-9.18,10.5-14.24,24-16.47,37.6-2.08,12.73-2.05,26.18,1.12,38.74.67,2.64,3.35,9,6.78,5.17,2.4-2.7,3.38-7.59,4.32-11a63.24,63.24,0,0,0,2.15-12.21,74.63,74.63,0,0,0-2.83-25.08c-1.92-7.11-4.48-14.94-9.72-20.37-4-4.13-8.93-4.84-13.54-1.24-6.08,4.76-9.43,12.86-9.7,20.44,0,1.06,1.62,1.06,1.66,0,.24-6.74,3-13.75,8.11-18.33,4.34-3.94,8.89-3.54,12.76.8,4.59,5.14,6.91,12.12,8.7,18.65a76.53,76.53,0,0,1,3.07,21.47,63.85,63.85,0,0,1-4.1,21.12c-.53,1.46-1.75,6.27-4,4.71a5.34,5.34,0,0,1-1.48-2.44,39.67,39.67,0,0,1-1.63-6.89,98,98,0,0,1,0-33.91c2.24-13.07,7.09-26,15.91-36.09.7-.8-.47-2-1.17-1.17Z"/>
            <path class="cls-2" d="M149.35,182.23c3,1.82,7.16,2.8,10.56,1.77,3.84-1.16,6.82-4.87,8.57-8.31a26.14,26.14,0,0,0-.47-23.88c-2.48-4.68-7.58-9.44-12.8-5.25-4.54,3.64-5.32,11.12-5.84,16.46a119.14,119.14,0,0,0,.35,24h1.66a115.85,115.85,0,0,0-3.21-15.63c-1.42-5.38-2.95-12.35-6.88-16.55-1-1.07-2.67-2.26-4.23-1.61s-1.47,2.49-1.54,3.82c-.36,7.14,1.17,14.56,2.15,21.6,1.59,11.48,2.57,23,3.58,34.52h1.65A289.61,289.61,0,0,0,138,181.12c-1.39-6.22-2.95-13-6.31-18.46-1.5-2.47-4-5.32-7.2-4.33-5.17,1.58-6.33,9.22-6.91,13.67-1.15,8.88-.59,17.95,0,26.84l1.63-.22c-1.28-8.94-3-19.12-7.58-27-1-1.8-3.17-4.86-5.71-4-1.81.63-2.4,3.16-2.78,4.79-1.78,7.59-1.57,15.65-2.42,23.38-.37,3.31-.64,7.28-2.25,10.28s-3.46.79-4.53-1.43c-2.26-4.68-3.23-10.08-4.2-15.14-1-5.27-1.78-10.57-2.43-15.9l-1.63.23c1.58,8.37,4,17.25,1.42,25.64-.37,1.19-1.56,2.84-1.66,4,0-.09-.28.42-.29.4.07.21.92-.08.88,0,0-.06-.29-.43-.31-.48-.45-1.47-1.82-3.08-2.61-4.4a73.73,73.73,0,0,0-8.43-12.12c-1.9-2.08-5.06-5.17-8.08-3.42-2.24,1.29-4,4-5.35,6.11a36.56,36.56,0,0,0-4.61,9c-1.6,5-1.29,11.24-.1,16.27.81,3.44,3.31,8.82,7.82,7.18,4.15-1.5,3.88-8.06,3.61-11.52-.53-6.51-2.54-14.49-7.93-18.7C52.67,186,43.16,190.54,37.18,196c-.8.71.38,1.88,1.17,1.17,6.44-5.85,17.26-10.06,23.31-1.21,3.12,4.56,4.49,10.28,4.74,15.75.1,2.24.12,4.84-.87,6.92-1.1,2.3-3.58,2.52-5.25.64-3.3-3.71-3.13-10.7-2.83-15.31.36-5.73,3.1-10.79,6.5-15.34,1.06-1.4,2.79-4.17,4.83-4,1.64.14,3.19,1.82,4.25,2.92a61.16,61.16,0,0,1,7.79,10.87c.89,1.46,1.75,2.93,2.62,4.41.36.6.85,1.91,1.48,2.3,2.73,1.7,4.59-8.05,4.78-9.19,1.19-7.37-1-15.36-2.41-22.56-.18-.9-1.75-.71-1.63.22,1.14,9.35,2.38,19,5.32,27.95.8,2.42,1.85,6.14,4.28,7.46,1.87,1,3.57-.22,4.51-1.85,1.52-2.61,1.91-5.92,2.31-8.85.55-4.09.83-8.2,1.14-12.31a107.86,107.86,0,0,1,1.29-12c.32-1.66.86-5.93,3.39-4.38,1.71,1,2.73,3.5,3.51,5.24a59.83,59.83,0,0,1,2.84,8.24,124.92,124.92,0,0,1,3.37,16c.13.91,1.69.7,1.63-.23a178.87,178.87,0,0,1-.56-20.71,53,53,0,0,1,1.4-10.79c.64-2.46,1.63-5.53,3.91-7,7-4.41,11.36,16.81,12.13,20.14a279.48,279.48,0,0,1,5.12,32.69c.11,1.05,1.75,1.07,1.65,0-.81-9.27-1.42-18.58-2.65-27.8-.95-7.15-2.09-14.28-2.76-21.46a35.09,35.09,0,0,1-.25-7.73c.26-1.91,1.39-1.64,2.65-.41,3.75,3.65,5.15,10.37,6.46,15.21a114.31,114.31,0,0,1,3.37,16c.13,1,1.78,1.07,1.66,0-1.14-10.64-1.9-22.65,1.31-33a13.33,13.33,0,0,1,3.23-5.92c2.65-2.43,6-1.63,8.19.85,4.26,4.68,5.92,11.88,5.26,18-.53,4.82-2.58,9.82-6.22,13.11s-8.81,3.26-13,.7c-.91-.56-1.74.87-.83,1.43Z"/>
            <path class="cls-2" d="M121.9,215.07a3.64,3.64,0,0,0-4.84-5.06c-1,.45-.12,1.88.84,1.44a2,2,0,0,1,2.57,2.78c-.5,1,.93,1.79,1.43.84Z"/>
            <path class="cls-2" d="M155.49,192.61c-10.22,3.82-17.83,11.81-27.77,16.08-1,.42-.13,1.85.84,1.44,9.81-4.22,17.29-12.15,27.37-15.92,1-.37.56-2-.44-1.6Z"/>
            <path class="cls-2" d="M261.24,212.58a383.27,383.27,0,0,1-10.3-49.64c-1.17-8.31-2.09-16.65-2.81-25q-.52-6.08-.91-12.14c-.26-4.18-1.1-8.9-.38-13,.48-2.73,2.34-5.94,5.54-4.29s4.87,6.18,6.39,9.19a114.1,114.1,0,0,1,8,21.3c3.3,12.15,4.64,25,5.49,37.54,1,15.47.09,31.14-4.58,46-3.43,10.92-9.26,21.45-20.26,26.17-21.86,9.41-40.59-12.49-42.57-32.71-1.28-13.16,1.36-27.69,8.12-39.14a46.16,46.16,0,0,1,12.59-13.6c5.7-4.12,12.22-5.17,19.13-4.87,1.07,0,1.06-1.61,0-1.65-6.11-.27-12.19.42-17.56,3.52a45.8,45.8,0,0,0-12.8,11.62c-7.62,9.93-10.91,23.31-11.37,35.63s2.82,24.61,11.2,34.11c6.61,7.48,16.27,12,26.34,10.7,10.42-1.37,19-8.53,24-17.55,7.85-14.16,9.92-32,9.82-47.93a207.19,207.19,0,0,0-1.6-22.94c-.76-6.48-1.48-13-2.87-19.37a123.09,123.09,0,0,0-7.12-22.24,80.29,80.29,0,0,0-5.54-10.95c-1.31-2.09-3.1-4.43-5.69-4.91-5.66-1-6.57,6.61-6.41,10.44.4,9.33,1.11,18.67,2,28a414,414,0,0,0,8.95,54.43q1.65,6.94,3.58,13.82a.83.83,0,0,0,1.6-.45Z"/>
          </g>
        </g>
      </g>
    </g>
  </g>
</svg>
